<svg xmlns="http://www.w3.org/2000/svg" viewBox="0 0 1600 900" role="img" aria-label="Dwarf Fortress tile-map mountainhome with halls, workshops, magma and carved records">
  <defs>
    <linearGradient id="sky" x1="0" y1="0" x2="0" y2="1">
      <stop offset="0" stop-color="#10100f"/>
      <stop offset=".45" stop-color="#26231d"/>
      <stop offset="1" stop-color="#090909"/>
    </linearGradient>
    <linearGradient id="magma" x1="0" y1="0" x2="1" y2="0">
      <stop offset="0" stop-color="#7f2621"/>
      <stop offset=".44" stop-color="#df6b36"/>
      <stop offset=".72" stop-color="#ffb24f"/>
      <stop offset="1" stop-color="#d5b36f"/>
    </linearGradient>
    <pattern id="tilegrid" width="42" height="42" patternUnits="userSpaceOnUse">
      <rect width="42" height="42" fill="none" stroke="#b7c0c4" stroke-opacity=".12" stroke-width="2"/>
      <rect x="2" y="2" width="8" height="8" fill="#d5b36f" opacity=".12"/>
    </pattern>
    <filter id="grain">
      <feTurbulence type="fractalNoise" baseFrequency=".8" numOctaves="3" stitchTiles="stitch"/>
      <feColorMatrix type="saturate" values="0"/>
      <feComponentTransfer><feFuncA type="table" tableValues="0 .2"/></feComponentTransfer>
    </filter>
  </defs>

  <rect width="1600" height="900" fill="url(#sky)"/>
  <rect width="1600" height="900" fill="url(#tilegrid)" opacity=".7"/>
  <circle cx="1240" cy="132" r="78" fill="#d5b36f" opacity=".25"/>

  <path d="M0 520 250 245l158 128 182-252 220 330 150-160 170 180 180-260 290 330v359H0z" fill="#24231f"/>
  <path d="M0 620 310 350l130 90 150-190 210 280 120-108 150 160 210-270 320 300v288H0z" fill="#141412"/>
  <path d="M0 770c240-60 430-58 680-20 320 48 600 28 920-54v204H0z" fill="#080807"/>

  <g transform="translate(550 202)">
    <rect x="0" y="0" width="492" height="568" fill="#1c1b18" stroke="#8d7041" stroke-width="10"/>
    <rect x="42" y="42" width="408" height="80" fill="#302d27" stroke="#514638" stroke-width="6"/>
    <rect x="42" y="156" width="118" height="112" fill="#24231f" stroke="#514638" stroke-width="6"/>
    <rect x="186" y="156" width="118" height="112" fill="#24231f" stroke="#514638" stroke-width="6"/>
    <rect x="330" y="156" width="120" height="112" fill="#24231f" stroke="#514638" stroke-width="6"/>
    <rect x="42" y="306" width="408" height="74" fill="#24231f" stroke="#514638" stroke-width="6"/>
    <rect x="42" y="420" width="118" height="104" fill="#24231f" stroke="#514638" stroke-width="6"/>
    <rect x="186" y="420" width="118" height="104" fill="#24231f" stroke="#514638" stroke-width="6"/>
    <rect x="330" y="420" width="120" height="104" fill="#24231f" stroke="#514638" stroke-width="6"/>
    <g fill="#d5b36f">
      <rect x="78" y="184" width="34" height="34"/>
      <rect x="224" y="184" width="34" height="34"/>
      <rect x="370" y="184" width="34" height="34"/>
      <rect x="224" y="326" width="34" height="34"/>
      <rect x="78" y="448" width="34" height="34"/>
      <rect x="370" y="448" width="34" height="34"/>
    </g>
    <path d="M246 122v434M42 344h408" stroke="#8d7041" stroke-width="8" opacity=".8"/>
  </g>

  <g transform="translate(1120 616)">
    <path d="M0 100h360" stroke="#514638" stroke-width="20"/>
    <path d="M0 74c66 24 118-22 180 0s116 28 180-12v86H0z" fill="url(#magma)" opacity=".92"/>
    <path d="M72 26h52l32 42H42z" fill="#302d27" stroke="#b7c0c4" stroke-width="6"/>
    <path d="M214 8h64l34 60H184z" fill="#302d27" stroke="#b7c0c4" stroke-width="6"/>
    <path d="M52 130h266" stroke="#df6b36" stroke-width="8" opacity=".7"/>
  </g>

  <g transform="translate(190 640)" stroke="#b58a4d" stroke-width="8" fill="none" stroke-linecap="square">
    <path d="M0 0h320M42-50h236M88-100h144"/>
    <path d="M80 0v-140M160 0v-170M240 0v-140"/>
    <path d="M24 40h272"/>
  </g>

  <g transform="translate(360 476)" fill="none" stroke="#d5b36f" stroke-width="9" stroke-linecap="square" stroke-linejoin="round">
    <path d="M0 100h190"/>
    <path d="M48 100V18h92v82"/>
    <path d="M18 18h152"/>
    <path d="M74 18v-50h40v50"/>
    <path d="M64 48h60"/>
  </g>

  <g font-family="monospace" font-size="30" font-weight="700">
    <text x="102" y="120" fill="#d5b36f">STRIKE THE EARTH</text>
    <text x="102" y="158" fill="#b7c0c4">MANAGER: BREW DRINK</text>
    <text x="1035" y="132" fill="#d5b36f">AQUIFER WARNING</text>
    <text x="1035" y="170" fill="#df6b36">MAGMA SAFE: FALSE</text>
    <text x="442" y="722" fill="#b7c0c4">@</text>
    <text x="484" y="722" fill="#d5b36f">☼</text>
    <text x="526" y="722" fill="#df6b36">≈</text>
  </g>

  <g fill="#090909" stroke="#514638" stroke-width="6">
    <path d="M96 728h104v94H96zM120 676h56v52h-56z"/>
    <path d="M1394 700h112v104h-112zM1418 648h64v52h-64z"/>
  </g>

  <rect width="1600" height="900" filter="url(#grain)" opacity=".5"/>
</svg>
